<svg width="32" height="32" viewBox="0 0 32 32" fill="none" xmlns="http://www.w3.org/2000/svg">
<path d="M8.66662 13.3335C8.36928 13.3335 8.08395 13.3789 7.79995 13.4202C7.89195 13.1109 7.98662 12.7962 8.13862 12.5135C8.29062 12.1029 8.52795 11.7469 8.76395 11.3882C8.96128 11.0002 9.30928 10.7375 9.56528 10.4055C9.83328 10.0829 10.1986 9.8682 10.4879 9.6002C10.7719 9.3202 11.1439 9.1802 11.4399 8.98287C11.7493 8.80553 12.0186 8.60953 12.3066 8.5162L13.0253 8.2202L13.6573 7.95753L13.0106 5.37354L12.2146 5.56553C11.9599 5.62953 11.6493 5.7042 11.2959 5.79353C10.9346 5.8602 10.5493 6.04287 10.1199 6.20953C9.69595 6.39887 9.20528 6.52687 8.74928 6.83087C8.29062 7.12153 7.76128 7.3642 7.29462 7.75353C6.84262 8.15487 6.29728 8.50287 5.89462 9.01353C5.45462 9.49087 5.01995 9.9922 4.68262 10.5629C4.29195 11.1069 4.02662 11.7042 3.74662 12.2949C3.49328 12.8855 3.28928 13.4895 3.12262 14.0762C2.80662 15.2522 2.66528 16.3695 2.61062 17.3255C2.56528 18.2829 2.59195 19.0789 2.64795 19.6549C2.66795 19.9269 2.70528 20.1909 2.73195 20.3735L2.76528 20.5975L2.79995 20.5895C3.0371 21.6973 3.58302 22.7153 4.37457 23.5258C5.16611 24.3362 6.17094 24.9061 7.2728 25.1693C8.37467 25.4325 9.52854 25.3785 10.601 25.0133C11.6734 24.6482 12.6205 23.9869 13.3328 23.1059C14.045 22.225 14.4933 21.1604 14.6258 20.0353C14.7583 18.9102 14.5696 17.7705 14.0815 16.7482C13.5933 15.7259 12.8257 14.8627 11.8675 14.2584C10.9092 13.6541 9.79949 13.3335 8.66662 13.3335ZM23.3333 13.3335C23.0359 13.3335 22.7506 13.3789 22.4666 13.4202C22.5586 13.1109 22.6533 12.7962 22.8053 12.5135C22.9573 12.1029 23.1946 11.7469 23.4306 11.3882C23.6279 11.0002 23.9759 10.7375 24.2319 10.4055C24.4999 10.0829 24.8653 9.8682 25.1546 9.6002C25.4386 9.3202 25.8106 9.1802 26.1066 8.98287C26.4159 8.80553 26.6853 8.60953 26.9733 8.5162L27.6919 8.2202L28.3239 7.95753L27.6773 5.37354L26.8813 5.56553C26.6266 5.62953 26.3159 5.7042 25.9626 5.79353C25.6013 5.8602 25.2159 6.04287 24.7866 6.20953C24.3639 6.4002 23.8719 6.52687 23.4159 6.8322C22.9573 7.12287 22.4279 7.36553 21.9613 7.75487C21.5093 8.1562 20.9639 8.5042 20.5613 9.01353C20.1213 9.49087 19.6866 9.9922 19.3493 10.5629C18.9586 11.1069 18.6933 11.7042 18.4133 12.2949C18.1599 12.8855 17.9559 13.4895 17.7893 14.0762C17.4733 15.2522 17.3319 16.3695 17.2773 17.3255C17.2319 18.2829 17.2586 19.0789 17.3146 19.6549C17.3346 19.9269 17.3719 20.1909 17.3986 20.3735L17.4319 20.5975L17.4666 20.5895C17.7038 21.6973 18.2497 22.7153 19.0412 23.5258C19.8328 24.3362 20.8376 24.9061 21.9395 25.1693C23.0413 25.4325 24.1952 25.3785 25.2676 25.0133C26.34 24.6482 27.2872 23.9869 27.9994 23.1059C28.7117 22.225 29.16 21.1604 29.2925 20.0353C29.425 18.9102 29.2363 17.7705 28.7481 16.7482C28.26 15.7259 27.4924 14.8627 26.5342 14.2584C25.5759 13.6541 24.4662 13.3335 23.3333 13.3335Z" fill="#009999"/>
</svg>
